<?xml version="1.0" encoding="utf-8"?>
<svg version="1.1" id="Layer_1" xmlns="http://www.w3.org/2000/svg" xmlns:xlink="http://www.w3.org/1999/xlink" x="0px" y="0px"
	 width='150px' height='150px' viewBox="-230 323 149.5 147" style="enable-background:new -230 323 149.5 147;" xml:space="preserve">
<style type="text/css">
	.st0{fill:#fff;}
</style>
<path class="st0" d="M-98.2,388.2c-3,1.3-6.2,2.2-9.6,2.6c3.5-2.1,6.1-5.4,7.4-9.3c-3.2,1.9-6.8,3.3-10.6,4.1
	c-3.1-3.3-7.4-5.3-12.2-5.3c-9.3,0-16.8,7.5-16.8,16.8c0,1.3,0.1,2.6,0.4,3.8c-13.9-0.7-26.3-7.4-34.5-17.5
	c-1.4,2.5-2.3,5.4-2.3,8.4c0,5.8,3,10.9,7.5,13.9c-2.7-0.1-5.3-0.8-7.6-2.1c0,0.1,0,0.1,0,0.2c0,8.1,5.8,14.9,13.4,16.4
	c-1.4,0.4-2.9,0.6-4.4,0.6c-1.1,0-2.1-0.1-3.2-0.3c2.1,6.7,8.3,11.5,15.7,11.6c-5.7,4.5-13,7.2-20.8,7.2c-1.4,0-2.7-0.1-4-0.2
	c7.4,4.8,16.2,7.5,25.7,7.5c30.8,0,47.7-25.5,47.7-47.7c0-0.7,0-1.4,0-2.2C-103.3,394.5-100.4,391.5-98.2,388.2z"/>
</svg>
