<svg version="1" xmlns="http://www.w3.org/2000/svg" width="933.333" height="933.333" viewBox="0 0 700.000000 700.000000"><path d="M338.5 3.6c-43.1 2.4-81.8 13.2-119 33.2C133.4 83.1 71.2 172.9 51.6 279c-4.8 26.2-6 40.4-6 71s1.2 44.8 6 71c21.3 115.3 92.8 210.6 189.7 252.9 23 10 54.3 18.3 79.7 21.2 5.8.6 18.8 1.1 29 1.1 21.5 0 33.8-1.2 54.3-5.2 51.8-10.4 102-37.4 142.7-76.7 58.7-56.7 94.8-132.2 105.6-221.3 2.5-20.3 2.5-65.7 0-86-9.6-78.8-38.4-146.1-86.2-201.1C523.1 56 464.7 21.1 404.3 9c-21.1-4.2-47.9-6.4-65.8-5.4zM322 119.5c5.7.8 13.1 2.2 16.5 3 5.5 1.4 6.8 1.4 13 0 27-6.3 62.1-5.9 90 1.1 49.2 12.2 92.4 42.8 119.7 84.9 15.5 23.8 25.9 51.3 30.4 80.2 2 13 2.3 41.8.5 54.3-10.5 74.4-60.3 136.3-130.1 161.6-34.4 12.5-69.8 15.3-106.6 8.2l-11.2-2.1-10.3 2.1c-21.1 4.4-40 5.2-61.8 2.6-44.7-5.2-85.6-24.9-117.5-56.7-31.2-31.1-49.6-67.2-57.2-112.2-2.1-12.4-2.4-42.1-.5-55.5 10.2-73.4 60.1-135.6 129.4-161.1 10.4-3.8 28.3-8.5 37.7-9.8 4.1-.6 8.6-1.3 10-1.5 7.1-1 38.5-.4 48 .9z"/></svg>