<svg id="Layer_1" xmlns="http://www.w3.org/2000/svg" width="150" height="150" viewBox="-230 323 149.5 147"><style>.st0{fill:#fff;}</style><path class="st0" d="M-98.2 388.2c-3 1.3-6.2 2.2-9.6 2.6 3.5-2.1 6.1-5.4 7.4-9.3-3.2 1.9-6.8 3.3-10.6 4.1-3.1-3.3-7.4-5.3-12.2-5.3-9.3 0-16.8 7.5-16.8 16.8 0 1.3.1 2.6.4 3.8-13.9-.7-26.3-7.4-34.5-17.5-1.4 2.5-2.3 5.4-2.3 8.4 0 5.8 3 10.9 7.5 13.9-2.7-.1-5.3-.8-7.6-2.1v.2c0 8.1 5.8 14.9 13.4 16.4-1.4.4-2.9.6-4.4.6-1.1 0-2.1-.1-3.2-.3 2.1 6.7 8.3 11.5 15.7 11.6-5.7 4.5-13 7.2-20.8 7.2-1.4 0-2.7-.1-4-.2 7.4 4.8 16.2 7.5 25.7 7.5 30.8 0 47.7-25.5 47.7-47.7v-2.2c3.1-2.2 6-5.2 8.2-8.5z"/></svg>